<svg xmlns="http://www.w3.org/2000/svg" width="400" height="400" viewBox="0 0 400 400">
  <!-- 背景 -->
  <rect width="400" height="400" fill="#1a1a2e" />
  
  <!-- 星星背景 -->
  <g opacity="0.3">
    <circle cx="50" cy="50" r="2" fill="white" />
    <circle cx="120" cy="80" r="3" fill="white" />
    <circle cx="200" cy="30" r="2" fill="white" />
    <circle cx="280" cy="70" r="3" fill="white" />
    <circle cx="350" cy="40" r="2" fill="white" />
    <circle cx="90" cy="150" r="3" fill="white" />
    <circle cx="170" cy="120" r="2" fill="white" />
    <circle cx="260" cy="180" r="3" fill="white" />
    <circle cx="330" cy="130" r="2" fill="white" />
    <circle cx="60" cy="220" r="3" fill="white" />
    <circle cx="140" cy="260" r="2" fill="white" />
    <circle cx="230" cy="320" r="3" fill="white" />
    <circle cx="310" cy="270" r="2" fill="white" />
    <circle cx="380" cy="310" r="3" fill="white" />
    <circle cx="120" cy="350" r="2" fill="white" />
    <circle cx="210" cy="380" r="3" fill="white" />
    <circle cx="300" cy="360" r="2" fill="white" />
  </g>
  
  <!-- 头部 -->
  <circle cx="200" cy="160" r="90" fill="#67d7f0" />
  
  <!-- 头发 -->
  <path d="M110,160 Q120,60 200,70 Q280,60 290,160 Q300,240 250,270 Q220,290 180,270 Q140,250 110,160 Z" fill="#67d7f0" />
  
  <!-- 脸 -->
  <ellipse cx="200" cy="170" rx="70" ry="80" fill="#ffead9" />
  
  <!-- 眼睛 -->
  <g>
    <!-- 左眼 -->
    <ellipse cx="170" cy="150" rx="15" ry="20" fill="white" />
    <circle cx="170" cy="150" r="8" fill="#3a86ff" />
    <circle cx="173" cy="147" r="3" fill="white" />
    
    <!-- 右眼 -->
    <ellipse cx="230" cy="150" rx="15" ry="20" fill="white" />
    <circle cx="230" cy="150" r="8" fill="#3a86ff" />
    <circle cx="233" cy="147" r="3" fill="white" />
    
    <!-- 眼睫毛 -->
    <path d="M155,140 Q165,130 170,135" stroke="#333" stroke-width="2" fill="none" />
    <path d="M185,135 Q175,130 180,140" stroke="#333" stroke-width="2" fill="none" />
    <path d="M215,135 Q225,130 230,140" stroke="#333" stroke-width="2" fill="none" />
    <path d="M245,140 Q235,130 230,135" stroke="#333" stroke-width="2" fill="none" />
  </g>
  
  <!-- 嘴巴（男生风格） -->
  <path d="M180,200 Q200,220 220,200" stroke="#ff758f" stroke-width="3" fill="none" />
  
  <!-- 脸颊 -->
  <circle cx="160" cy="180" r="10" fill="#ffb6b6" opacity="0.5" />
  <circle cx="240" cy="180" r="10" fill="#ffb6b6" opacity="0.5" />
  
  <!-- 衣领（男生衬衫风格） -->
  <path d="M150,260 L140,320 L200,300 L260,320 L250,260" fill="#ffffff" />
  <path d="M180,280 L200,320 L220,280" fill="#333333" />
  
  <!-- 头发装饰（男生风格） -->
  <path d="M120,120 L150,110 L145,130 Z" fill="#67d7f0" />
  <path d="M280,120 L250,110 L255,130 Z" fill="#67d7f0" />
  
  <!-- 男生风格标识 - 小领带 -->
  <path d="M195,290 L205,290 L208,320 L200,330 L192,320 L195,290 Z" fill="#3a0ca3" />
  
  <!-- 星星装饰（动漫风格） -->
  <g opacity="0.7">
    <path d="M100,120 L105,130 L115,130 L107,140 L110,150 L100,145 L90,150 L93,140 L85,130 L95,130 Z" fill="#ffea00" />
    <path d="M300,120 L305,130 L315,130 L307,140 L310,150 L300,145 L290,150 L293,140 L285,130 L295,130 Z" fill="#ffea00" />
    <path d="M90,230 L95,240 L105,240 L97,250 L100,260 L90,255 L80,260 L83,250 L75,240 L85,240 Z" fill="#ffea00" opacity="0.5" />
    <path d="M310,230 L315,240 L325,240 L317,250 L320,260 L310,255 L300,260 L303,250 L295,240 L305,240 Z" fill="#ffea00" opacity="0.5" />
  </g>
  
  <!-- 男性符号 -->
  <g transform="translate(320, 50) scale(0.7)">
    <circle cx="0" cy="0" r="15" fill="none" stroke="#3a86ff" stroke-width="4" />
    <line x1="0" y1="15" x2="0" y2="35" stroke="#3a86ff" stroke-width="4" />
    <line x1="-10" y1="25" x2="10" y2="25" stroke="#3a86ff" stroke-width="4" />
  </g>
</svg> 